<svg width="79" height="25" viewBox="0 0 79 25" fill="none" xmlns="http://www.w3.org/2000/svg">
<path d="M7.856 24.8C6.84267 24.8 5.86667 24.6827 4.928 24.448C3.98933 24.2133 3.14933 23.8667 2.408 23.408C1.66667 22.9493 1.08 22.376 0.648 21.688C0.216 21 0 20.1973 0 19.28C0 19.2373 0 19.1867 0 19.128C0 19.0693 0 19.024 0 18.992H4.928C4.928 19.024 4.928 19.0587 4.928 19.096C4.928 19.1333 4.928 19.1733 4.928 19.216C4.928 19.8347 5.20267 20.288 5.752 20.576C6.30133 20.864 7.04533 21.008 7.984 21.008C8.47467 21.008 8.94667 20.9573 9.4 20.856C9.85333 20.7547 10.2267 20.5893 10.52 20.36C10.8133 20.1307 10.96 19.84 10.96 19.488C10.96 18.9227 10.648 18.5227 10.024 18.288C9.4 18.0533 8.4 17.8187 7.024 17.584C6.24533 17.456 5.456 17.2747 4.656 17.04C3.856 16.8053 3.12 16.4933 2.448 16.104C1.776 15.7147 1.23733 15.2187 0.832 14.616C0.426667 14.0133 0.224 13.28 0.224 12.416C0.224 11.264 0.573333 10.2933 1.272 9.504C1.97067 8.71467 2.90133 8.11733 4.064 7.712C5.22667 7.30667 6.50667 7.104 7.904 7.104C9.23733 7.104 10.48 7.32533 11.632 7.768C12.784 8.21067 13.7173 8.84533 14.432 9.672C15.1467 10.4987 15.504 11.4933 15.504 12.656C15.504 12.6773 15.504 12.7093 15.504 12.752C15.504 12.7947 15.504 12.8373 15.504 12.88H10.624C10.624 12.8373 10.624 12.8 10.624 12.768C10.624 12.736 10.624 12.7093 10.624 12.688C10.624 12.2613 10.488 11.9147 10.216 11.648C9.944 11.3813 9.6 11.1813 9.184 11.048C8.768 10.9147 8.336 10.848 7.888 10.848C7.48267 10.848 7.064 10.8933 6.632 10.984C6.2 11.0747 5.83467 11.224 5.536 11.432C5.23733 11.64 5.088 11.9307 5.088 12.304C5.088 12.6667 5.248 12.9627 5.568 13.192C5.888 13.4213 6.336 13.608 6.912 13.752C7.488 13.896 8.15467 14.032 8.912 14.16C9.62667 14.2773 10.3813 14.44 11.176 14.648C11.9707 14.856 12.7173 15.1493 13.416 15.528C14.1147 15.9067 14.68 16.4027 15.112 17.016C15.544 17.6293 15.76 18.4053 15.76 19.344C15.76 20.3147 15.536 21.1467 15.088 21.84C14.64 22.5333 14.0347 23.096 13.272 23.528C12.5093 23.96 11.6613 24.28 10.728 24.488C9.79467 24.696 8.83733 24.8 7.856 24.8Z" fill="#172339"/>
<path fill-rule="evenodd" clip-rule="evenodd" d="M21.4596 24.152C22.2382 24.5413 23.2302 24.736 24.4356 24.736C25.5129 24.736 26.4809 24.544 27.3396 24.16C28.1982 23.776 28.9262 23.24 29.5236 22.552C29.6947 22.3549 29.8547 22.1483 30.0036 21.9323V24.416H34.9636V7.424H30.0036V16.032C30.0036 16.768 29.8596 17.4827 29.5716 18.176C29.2836 18.8693 28.8676 19.4373 28.3236 19.88C27.7796 20.3227 27.1182 20.544 26.3396 20.544C25.5396 20.544 24.9236 20.3627 24.4916 20C24.0596 19.6373 23.7636 19.1573 23.6036 18.56C23.4436 17.9627 23.3636 17.3067 23.3636 16.592V15.648V14.592V7.424H18.4036V15.376V16.688V17.904C18.4036 18.736 18.4942 19.5573 18.6756 20.368C18.8569 21.1787 19.1716 21.9147 19.6196 22.576C20.0676 23.2373 20.6809 23.7627 21.4596 24.152ZM30.0036 16.032V21.9323C30.3741 21.3946 30.6755 20.7985 30.9076 20.144C31.2329 19.2267 31.3956 18.2347 31.3956 17.168L30.0036 16.032Z" fill="#172339"/>
<path fill-rule="evenodd" clip-rule="evenodd" d="M38.479 4.048C39.0497 4.45333 39.719 4.656 40.487 4.656C41.2657 4.656 41.9404 4.456 42.511 4.056C43.0817 3.656 43.367 3.08267 43.367 2.336C43.367 1.58933 43.0817 1.01333 42.511 0.608C41.9404 0.202667 41.2657 0 40.487 0C39.719 0 39.0497 0.202667 38.479 0.608C37.9084 1.01333 37.623 1.58933 37.623 2.336C37.623 3.072 37.9084 3.64267 38.479 4.048ZM38.039 7.424V24.416H42.951V7.424H38.039Z" fill="#172339"/>
<path d="M54.5227 24.768C53.8721 24.768 53.2027 24.712 52.5147 24.6C51.8267 24.488 51.1867 24.264 50.5947 23.928C50.0027 23.592 49.5254 23.0987 49.1627 22.448C48.8001 21.7973 48.6187 20.9387 48.6187 19.872C48.6187 19.6373 48.6187 19.3973 48.6187 19.152C48.6187 18.9067 48.6187 18.6613 48.6187 18.416V11.264H44.6987V7.424H45.8027C46.4427 7.424 46.9521 7.39733 47.3307 7.344C47.7094 7.29067 47.9921 7.15467 48.1787 6.936C48.3654 6.71733 48.4854 6.37333 48.5387 5.904C48.5921 5.43467 48.6187 4.78933 48.6187 3.968V1.824H53.5947V7.424H58.5387V11.264H53.5947V17.376C53.5947 17.568 53.5947 17.7547 53.5947 17.936C53.5947 18.1173 53.5947 18.2933 53.5947 18.464C53.5947 19.2 53.6827 19.7973 53.8587 20.256C54.0347 20.7147 54.4747 20.944 55.1787 20.944C55.5307 20.944 55.8641 20.912 56.1787 20.848C56.4934 20.784 56.7307 20.72 56.8907 20.656V24.384C56.6667 24.48 56.3521 24.568 55.9467 24.648C55.5414 24.728 55.0667 24.768 54.5227 24.768Z" fill="#172339"/>
<path d="M62.5742 17.408V14.128H73.8382L73.3582 14.96C73.3582 14.8747 73.3582 14.792 73.3582 14.712C73.3582 14.632 73.3582 14.5547 73.3582 14.48C73.3582 13.872 73.2142 13.288 72.9262 12.728C72.6382 12.168 72.1929 11.7093 71.5902 11.352C70.9876 10.9947 70.2169 10.816 69.2782 10.816C68.3396 10.816 67.5316 11.016 66.8542 11.416C66.1769 11.816 65.6596 12.3893 65.3022 13.136C64.9449 13.8827 64.7662 14.784 64.7662 15.84C64.7662 16.928 64.9396 17.8587 65.2862 18.632C65.6329 19.4053 66.1502 20 66.8382 20.416C67.5262 20.832 68.3822 21.04 69.4062 21.04C70.0676 21.04 70.6382 20.9787 71.1182 20.856C71.5982 20.7333 71.9902 20.576 72.2942 20.384C72.5982 20.192 72.8302 19.9787 72.9902 19.744C73.1502 19.5093 73.2462 19.28 73.2782 19.056H78.1742C78.1102 19.7707 77.8649 20.472 77.4382 21.16C77.0116 21.848 76.4196 22.4667 75.6622 23.016C74.9049 23.5653 73.9849 24 72.9022 24.32C71.8196 24.64 70.5849 24.8 69.1982 24.8C67.3209 24.8 65.6836 24.424 64.2862 23.672C62.8889 22.92 61.8062 21.88 61.0382 20.552C60.2702 19.224 59.8862 17.6907 59.8862 15.952C59.8862 14.192 60.2782 12.648 61.0622 11.32C61.8462 9.992 62.9396 8.95733 64.3422 8.216C65.7449 7.47467 67.3689 7.104 69.2142 7.104C71.1022 7.104 72.7342 7.48 74.1102 8.232C75.4862 8.984 76.5476 10.0347 77.2942 11.384C78.0409 12.7333 78.4142 14.304 78.4142 16.096C78.4142 16.3627 78.4089 16.6187 78.3982 16.864C78.3876 17.1093 78.3716 17.2907 78.3502 17.408H62.5742Z" fill="#172339"/>
</svg>
